<svg width="24" height="24" viewBox="0 0 24 24" fill="none" xmlns="http://www.w3.org/2000/svg">
<path d="M7.19947 3C6.85007 3.00088 6.50642 3.09178 6.20237 3.26393C5.89832 3.43607 5.64376 3.68366 5.46323 3.98281L1.18147 11.1194C1.06274 11.3174 1 11.5441 1 11.775C1 12.0059 1.06271 12.2325 1.18144 12.4306L5.46304 19.5669C5.64357 19.866 5.89832 20.1139 6.20237 20.2861C6.50642 20.4582 6.8497 20.5491 7.1991 20.55H21.0248C21.5618 20.55 22.0769 20.3367 22.4567 19.9569C22.8364 19.5771 23.0498 19.0621 23.0498 18.525V5.025C23.0498 4.48794 22.8364 3.97287 22.4567 3.59311C22.0769 3.21335 21.5618 3 21.0248 3H7.19947ZM10.37 10.427L11.7189 11.7751L10.3899 13.1058L10.3881 13.1067L10.3709 13.1239C10.1314 13.3634 9.9969 13.6882 9.9969 14.0269C9.9969 14.3655 10.1314 14.6903 10.3709 14.9298C10.6104 15.1693 10.9352 15.3038 11.2738 15.3038C11.6125 15.3038 11.9373 15.1693 12.1768 14.9298L13.5249 13.5809L14.8737 14.9289C15.1131 15.1684 15.438 15.3029 15.7767 15.3029C16.1153 15.3029 16.4401 15.1684 16.6796 14.9289C16.9191 14.6894 17.0536 14.3646 17.0536 14.0259C17.0536 13.6873 16.9191 13.3625 16.6796 13.123L15.3307 11.7749L16.6787 10.4261C16.6787 10.4261 16.6787 10.4261 16.6787 10.4261C16.9182 10.1866 17.0527 9.86178 17.0527 9.52313C17.0527 9.18446 16.9181 8.85966 16.6787 8.62018C16.4392 8.38071 16.1144 8.24617 15.7757 8.24617C15.4371 8.24617 15.1123 8.38071 14.8728 8.62018L13.5247 9.96912L12.1759 8.62112C11.9364 8.38165 11.6116 8.24711 11.2729 8.24711C10.9342 8.24711 10.6094 8.38165 10.37 8.62112C10.1305 8.8606 9.99596 9.18539 9.99596 9.52406C9.99596 9.86273 10.1305 10.1875 10.37 10.427ZM20.4998 18H7.49722L3.76221 11.775L7.49722 5.55H20.4998V18Z" fill="#696969"/>

<path d="M16.6787 10.4261L15.3307 11.7749L16.6796 13.123C16.9191 13.3625 17.0536 13.6873 17.0536 14.0259C17.0536 14.3646 16.9191 14.6894 16.6796 14.9289C16.4401 15.1684 16.1153 15.3029 15.7767 15.3029C15.438 15.3029 15.1131 15.1684 14.8737 14.9289L13.5249 13.5809L12.1768 14.9298C11.9373 15.1693 11.6125 15.3038 11.2738 15.3038C10.9352 15.3038 10.6104 15.1693 10.3709 14.9298C10.1314 14.6903 9.9969 14.3655 9.9969 14.0269C9.9969 13.6882 10.1314 13.3634 10.3709 13.1239L10.3881 13.1067L10.3899 13.1058L11.7189 11.7751L10.37 10.427C10.1305 10.1875 9.99596 9.86273 9.99596 9.52406C9.99596 9.18539 10.1305 8.8606 10.37 8.62112C10.6094 8.38165 10.9342 8.24711 11.2729 8.24711C11.6116 8.24711 11.9364 8.38165 12.1759 8.62112L13.5247 9.96912L14.8728 8.62018C15.1123 8.38071 15.4371 8.24617 15.7757 8.24617C16.1144 8.24617 16.4392 8.38071 16.6787 8.62018C16.9181 8.85966 17.0527 9.18446 17.0527 9.52313C17.0527 9.86178 16.9182 10.1866 16.6787 10.4261ZM16.6787 10.4261C16.6787 10.4261 16.6787 10.4261 16.6787 10.4261ZM7.19947 3C6.85007 3.00088 6.50642 3.09178 6.20237 3.26393C5.89832 3.43607 5.64376 3.68366 5.46323 3.98281L1.18147 11.1194C1.06274 11.3174 1 11.5441 1 11.775C1 12.0059 1.06271 12.2325 1.18144 12.4306L5.46304 19.5669C5.64357 19.866 5.89832 20.1139 6.20237 20.2861C6.50642 20.4582 6.8497 20.5491 7.1991 20.55H21.0248C21.5618 20.55 22.0769 20.3367 22.4567 19.9569C22.8364 19.5771 23.0498 19.0621 23.0498 18.525V5.025C23.0498 4.48794 22.8364 3.97287 22.4567 3.59311C22.0769 3.21335 21.5618 3 21.0248 3H7.19947ZM20.4998 18H7.49722L3.76221 11.775L7.49722 5.55H20.4998V18Z" stroke="#696969" stroke-width="0.3"/>
</svg>
