<svg width="24" height="24" viewBox="0 0 24 24" fill="none" xmlns="http://www.w3.org/2000/svg">
<path d="M4.53856 5.07263L4.5387 5.07245C5.85134 3.33311 7.6792 2.05217 9.7621 1.41195L4.53856 5.07263ZM4.53856 5.07263C3.39052 6.59856 2.69043 8.41421 2.51682 10.3159M4.53856 5.07263L2.51682 10.3159M22.5845 14.2345L22.5843 14.2349C21.9457 16.3183 20.6661 18.1472 18.9277 19.4612C17.1497 20.8065 14.9796 21.5314 12.75 21.525L22.5845 14.2345ZM22.5845 14.2345C22.6515 14.0135 22.6572 13.7784 22.6011 13.5545C22.545 13.3305 22.4291 13.126 22.2659 12.9628M22.5845 14.2345L22.2659 12.9628M21.6726 12.6265C21.8972 12.6826 22.1023 12.7989 22.2658 12.9628C22.2658 12.9628 22.2658 12.9628 22.2659 12.9628M21.6726 12.6265L22.4556 13.5909C22.4061 13.3933 22.3038 13.2128 22.1597 13.0687L22.2659 12.9628M21.6726 12.6265C21.448 12.5703 21.2123 12.5764 20.9909 12.644M21.6726 12.6265L20.9909 12.644M20.9909 12.644L21.0347 12.7875M20.9909 12.644L21.0347 12.7875M21.0347 12.7875L20.9913 12.6439C19.6524 13.0481 18.2289 13.0816 16.8725 12.7407M21.0347 12.7875C21.2301 12.7278 21.438 12.7225 21.6362 12.772L16.8725 12.7407M16.8725 12.7407C15.5161 12.3998 14.2775 11.6974 13.2888 10.7083M16.8725 12.7407L13.2888 10.7083M13.2888 10.7083C12.3 9.71912 11.5981 8.48029 11.2577 7.12374M13.2888 10.7083L11.2577 7.12374M11.2577 7.12374C10.9174 5.76734 10.9514 4.34405 11.3559 3.00542M11.2577 7.12374L11.3559 3.00542M11.3559 3.00542C11.4241 2.78398 11.4306 2.54815 11.3747 2.32328C11.3189 2.09832 11.2028 1.89283 11.0389 1.72893C10.875 1.56503 10.6695 1.44891 10.4445 1.39306C10.2196 1.33721 9.98368 1.34374 9.76217 1.41193L11.3559 3.00542ZM2.51682 10.3159C2.34322 12.2175 2.70298 14.1299 3.55574 15.8385M2.51682 10.3159L3.55574 15.8385M3.55574 15.8385C4.4085 17.5471 5.72051 18.9842 7.34456 19.9887M3.55574 15.8385L7.34456 19.9887M7.34456 19.9887C8.96848 20.9931 10.8401 21.525 12.7495 21.525L7.34456 19.9887ZM8.48416 4.81105C8.47805 4.95704 8.47499 5.10335 8.47499 5.25V5.25016C8.47801 7.97429 9.56151 10.586 11.4878 12.5122C13.414 14.4385 16.0257 15.522 18.7498 15.525H18.75C18.8967 15.525 19.043 15.5219 19.189 15.5158C18.7028 16.2482 18.0957 16.8937 17.3932 17.4245C15.9057 18.5444 14.0638 19.0892 12.2064 18.9589C10.3491 18.8286 8.60128 18.0318 7.28471 16.7153C5.96814 15.3987 5.17138 13.6509 5.04106 11.7936C4.91075 9.93632 5.45557 8.0945 6.57527 6.60702C7.1063 5.90459 7.75185 5.29755 8.48416 4.81105Z" fill="black" stroke="black" stroke-width="0.3"/>
</svg>
